<svg xmlns="http://www.w3.org/2000/svg" width="99.624" height="25" viewBox="0 0 99.624 25"><g transform="translate(-434 -407)"><path d="M5.537,25A5.543,5.543,0,0,1,0,19.463V5.536A5.543,5.543,0,0,1,5.537,0H19.464A5.543,5.543,0,0,1,25,5.536V19.463A5.543,5.543,0,0,1,19.464,25ZM1.362,5.536V19.463a4.18,4.18,0,0,0,4.175,4.175H19.464a4.179,4.179,0,0,0,4.173-4.175V5.536a4.178,4.178,0,0,0-4.173-4.174H5.537A4.18,4.18,0,0,0,1.362,5.536Zm15.3,12.593L12.507,9.574,8.427,18.129H5.748L11.2,6.872H13.8l5.454,11.257Z" transform="translate(434 407)" fill="#00d246"/><path d="M3.664,0V-11.392H1.312V0Zm6.912-8.32A2.892,2.892,0,0,0,8.192-7.1H8.16V-8.128h-2.1V0H8.3V-4.352c0-1.472.672-2.208,1.6-2.208.88,0,1.424.56,1.424,1.792V0h2.24V-4.992C13.568-7.2,12.4-8.32,10.576-8.32Zm8.656-.064c-2.48,0-4.1,1.7-4.1,4.32s1.616,4.32,4.1,4.32a3.613,3.613,0,0,0,3.84-3.44H20.72c-.064,1.056-.64,1.712-1.5,1.712-1.088,0-1.744-.992-1.744-2.592s.656-2.592,1.744-2.592A1.506,1.506,0,0,1,20.736-5.1h2.336A3.6,3.6,0,0,0,19.232-8.384Zm9.744.128a2.443,2.443,0,0,0-2.224,1.28H26.72V-8.128H24.656V0H26.9V-3.84c0-1.6.736-2.464,2.112-2.464a3.8,3.8,0,0,1,.7.08V-8.16A2.905,2.905,0,0,0,28.976-8.256Zm5.28,6.928c-.96,0-1.776-.592-1.84-2.272h5.84A6.743,6.743,0,0,0,38-5.68a3.752,3.752,0,0,0-3.76-2.7,3.932,3.932,0,0,0-4.032,4.256c0,2.592,1.488,4.384,4.048,4.384a3.7,3.7,0,0,0,3.888-2.72H35.856A1.474,1.474,0,0,1,34.256-1.328ZM34.24-6.8a1.766,1.766,0,0,1,1.776,1.792H32.464C32.64-6.24,33.328-6.8,34.24-6.8Zm8.848-1.584c-2.32,0-3.44,1.248-3.52,2.8h2.176a1.208,1.208,0,0,1,1.344-1.232c.784,0,1.328.416,1.328,1.44v.288c-.512.032-1.424.128-2.032.224C40.032-4.5,39.232-3.6,39.232-2.272A2.486,2.486,0,0,0,42,.192a3.054,3.054,0,0,0,2.64-1.28h.032A4.639,4.639,0,0,0,44.784,0H46.8a8.53,8.53,0,0,1-.224-2.224V-5.168C46.576-7.3,45.392-8.384,43.088-8.384Zm1.328,4.96a1.935,1.935,0,0,1-.464,1.552,1.831,1.831,0,0,1-1.28.464c-.784,0-1.2-.416-1.2-1.024,0-.656.384-.96,1.312-1.12.48-.08,1.152-.144,1.632-.176Zm7.264-4.96c-2.016,0-3.36,1.04-3.36,2.5,0,1.888,1.456,2.208,2.816,2.56,1.264.336,1.872.48,1.872,1.184,0,.48-.4.784-1.184.784-.928,0-1.424-.464-1.424-1.28H48.128c0,1.968,1.392,2.9,3.648,2.9,2.208,0,3.584-1.024,3.584-2.544,0-1.984-1.6-2.352-3.056-2.736-1.232-.32-1.744-.464-1.744-1.04,0-.464.384-.752,1.1-.752.8,0,1.28.352,1.28,1.184h2.144C55.088-7.44,53.808-8.384,51.68-8.384Zm8.944,7.056c-.96,0-1.776-.592-1.84-2.272h5.84a6.743,6.743,0,0,0-.256-2.08,3.752,3.752,0,0,0-3.76-2.7,3.932,3.932,0,0,0-4.032,4.256c0,2.592,1.488,4.384,4.048,4.384a3.7,3.7,0,0,0,3.888-2.72H62.224A1.474,1.474,0,0,1,60.624-1.328ZM60.608-6.8a1.766,1.766,0,0,1,1.776,1.792H58.832C59.008-6.24,59.7-6.8,60.608-6.8Z" transform="translate(469 426)" fill="#fff"/></g></svg>